<svg width="28" height="28" viewBox="0 0 28 28" fill="none" xmlns="http://www.w3.org/2000/svg">
<path d="M28 14C28 21.732 21.732 28 14 28C6.26801 28 0 21.732 0 14C0 6.26801 6.26801 0 14 0C21.732 0 28 6.26801 28 14Z" fill="#363636"/>
<path d="M5.78646 16.125C5.00521 16.125 4.34549 15.8541 3.80729 15.3123C3.2691 14.7705 3 14.1126 3 13.3385C3 12.5645 3.2709 11.9066 3.81271 11.3648C4.35453 10.823 5.01245 10.5521 5.78646 10.5521V7.34896C5.78646 6.93229 5.94271 6.56771 6.25521 6.25521C6.56771 5.94271 6.93229 5.78646 7.34896 5.78646H11.6719C11.6719 5.00521 11.9428 4.34549 12.4846 3.80729C13.0264 3.2691 13.6843 3 14.4583 3C15.2323 3 15.8903 3.2709 16.4321 3.81271C16.9739 4.35453 17.2448 5.01245 17.2448 5.78646H21.5677C21.9844 5.78646 22.349 5.94271 22.6615 6.25521C22.974 6.56771 23.1302 6.93229 23.1302 7.34896V10.5521C23.9115 10.5521 24.5712 10.823 25.1094 11.3648C25.6476 11.9066 25.9167 12.5645 25.9167 13.3385C25.9167 14.1126 25.6458 14.7705 25.104 15.3123C24.5621 15.8541 23.9042 16.125 23.1302 16.125V21.2292C23.1302 21.6458 22.974 22.0104 22.6615 22.3229C22.349 22.6354 21.9844 22.7917 21.5677 22.7917H7.34896C6.93229 22.7917 6.56771 22.6354 6.25521 22.3229C5.94271 22.0104 5.78646 21.6458 5.78646 21.2292V16.125ZM10.8967 13.5208C11.1878 13.5208 11.4332 13.419 11.6328 13.2152C11.8325 13.0115 11.9323 12.7641 11.9323 12.473C11.9323 12.182 11.8304 11.9366 11.6267 11.737C11.4229 11.5373 11.1755 11.4375 10.8845 11.4375C10.5934 11.4375 10.3481 11.5394 10.1484 11.7431C9.94878 11.9468 9.84896 12.1942 9.84896 12.4853C9.84896 12.7763 9.95082 13.0217 10.1546 13.2214C10.3583 13.421 10.6057 13.5208 10.8967 13.5208ZM18.0322 13.5208C18.3232 13.5208 18.5686 13.419 18.7682 13.2152C18.9679 13.0115 19.0677 12.7641 19.0677 12.473C19.0677 12.182 18.9658 11.9366 18.7621 11.737C18.5584 11.5373 18.311 11.4375 18.0199 11.4375C17.7289 11.4375 17.4835 11.5394 17.2839 11.7431C17.0842 11.9468 16.9844 12.1942 16.9844 12.4853C16.9844 12.7763 17.0862 13.0217 17.29 13.2214C17.4937 13.421 17.7411 13.5208 18.0322 13.5208ZM10.0833 18.4948H18.8333V16.9323H10.0833V18.4948ZM7.34896 21.2292H21.5677V7.34896H7.34896V21.2292Z" fill="#E2E706"/>
</svg>
