<svg width="65" height="19" viewBox="0 0 65 19" fill="none" xmlns="http://www.w3.org/2000/svg">
<path d="M64.2251 9.18457C64.2251 14.1551 60.1957 18.1846 55.2251 18.1846C50.2545 18.1846 46.2251 14.1551 46.2251 9.18457C46.2251 4.21401 50.2545 0.18457 55.2251 0.18457C60.1957 0.18457 64.2251 4.21401 64.2251 9.18457Z" fill="#00FF1A"/>
<path d="M18.2251 9.18457C18.2251 14.1551 14.1957 18.1846 9.2251 18.1846C4.25453 18.1846 0.225098 14.1551 0.225098 9.18457C0.225098 4.21401 4.25453 0.18457 9.2251 0.18457C14.1957 0.18457 18.2251 4.21401 18.2251 9.18457Z" fill="#FF0000"/>
<path d="M41.2251 9.18457C41.2251 14.1551 37.1957 18.1846 32.2251 18.1846C27.2545 18.1846 23.2251 14.1551 23.2251 9.18457C23.2251 4.21401 27.2545 0.18457 32.2251 0.18457C37.1957 0.18457 41.2251 4.21401 41.2251 9.18457Z" fill="#EBFF00"/>
</svg>
