<svg width="87" height="72" viewBox="0 0 87 72" fill="none" xmlns="http://www.w3.org/2000/svg">
<path d="M1.48973 56.2391C0.476586 55.4329 0.170342 54.132 0.80571 53.3336L42.2214 1.28855C42.8568 0.490118 44.1932 0.496431 45.2063 1.30265L53.4614 7.87174C54.4745 8.67796 54.7807 9.9788 54.1454 10.7772L12.7297 62.8223C12.0943 63.6207 10.7579 63.6144 9.74476 62.8082L1.48973 56.2391Z" fill="#FF0000"/>
<path d="M18.0154 59.945C17.0023 59.1388 16.696 57.8379 17.3314 57.0395L58.7471 4.99445C59.3825 4.19601 60.7189 4.20233 61.732 5.00855L69.987 11.5776C71.0002 12.3839 71.3064 13.6847 70.6711 14.4831L29.2553 66.5282C28.62 67.3266 27.2836 67.3203 26.2705 66.5141L18.0154 59.945Z" fill="#EBFF00"/>
<path d="M33.9659 64.3737C32.9527 63.5675 32.6465 62.2667 33.2819 61.4682L74.6976 9.42319C75.333 8.62475 76.6693 8.63107 77.6825 9.43729L85.9375 16.0064C86.9507 16.8126 87.2569 18.1134 86.6215 18.9119L45.2058 70.9569C44.5704 71.7553 43.2341 71.749 42.2209 70.9428L33.9659 64.3737Z" fill="#00FF1A"/>
</svg>
