<svg width="169" height="37" viewBox="0 0 169 37" fill="none" xmlns="http://www.w3.org/2000/svg">
<path d="M17.9343 2.928L17.4063 6.576L4.59027 6.576V17.376H15.7263V21.024H4.59027L4.59027 32.352H18.3183V36H0.0302738L0.0302734 2.928L17.9343 2.928Z" fill="#0C0C0C"/>
<path d="M43.1163 10.704L34.5243 36H29.1963L20.4603 10.704H25.2603L31.8843 32.064L38.4603 10.704H43.1163Z" fill="#0C0C0C"/>
<path d="M64.4553 30.096C64.4553 31.12 64.6313 31.888 64.9833 32.4C65.3353 32.88 65.8633 33.248 66.5673 33.504L65.5593 36.576C64.2473 36.416 63.1913 36.048 62.3913 35.472C61.5913 34.896 60.9993 34 60.6153 32.784C58.9193 35.312 56.4073 36.576 53.0793 36.576C50.5833 36.576 48.6153 35.872 47.1753 34.464C45.7353 33.056 45.0153 31.216 45.0153 28.944C45.0153 26.256 45.9753 24.192 47.8953 22.752C49.8473 21.312 52.5993 20.592 56.1513 20.592H60.0393V18.72C60.0393 16.928 59.6073 15.648 58.7433 14.88C57.8793 14.112 56.5513 13.728 54.7593 13.728C52.9033 13.728 50.6313 14.176 47.9433 15.072L46.8393 11.856C49.9753 10.704 52.8873 10.128 55.5753 10.128C58.5513 10.128 60.7753 10.864 62.2473 12.336C63.7193 13.776 64.4553 15.84 64.4553 18.528V30.096ZM54.0873 33.264C56.6153 33.264 58.5993 31.952 60.0393 29.328V23.52H56.7273C52.0553 23.52 49.7193 25.248 49.7193 28.704C49.7193 30.208 50.0873 31.344 50.8233 32.112C51.5593 32.88 52.6473 33.264 54.0873 33.264Z" fill="#0C0C0C"/>
<path d="M85.4286 10.128C87.7326 10.128 89.5246 10.816 90.8046 12.192C92.1166 13.568 92.7727 15.456 92.7727 17.856V36H88.3567V18.48C88.3567 16.688 88.0206 15.424 87.3486 14.688C86.6766 13.952 85.6847 13.584 84.3727 13.584C83.0287 13.584 81.8446 13.968 80.8206 14.736C79.7966 15.504 78.8367 16.608 77.9407 18.048V36H73.5247V10.704L77.3167 10.704L77.7006 14.448C78.5966 13.104 79.7006 12.048 81.0126 11.28C82.3566 10.512 83.8286 10.128 85.4286 10.128Z" fill="#0C0C0C"/>
<path d="M121.234 0.528002V36H117.346L116.914 32.496C116.082 33.776 115.042 34.784 113.794 35.52C112.546 36.224 111.154 36.576 109.618 36.576C106.61 36.576 104.258 35.392 102.562 33.024C100.898 30.656 100.066 27.472 100.066 23.472C100.066 20.88 100.466 18.576 101.266 16.56C102.066 14.544 103.218 12.976 104.722 11.856C106.226 10.704 107.986 10.128 110.002 10.128C112.594 10.128 114.866 11.168 116.818 13.248V0L121.234 0.528002ZM110.578 33.072C111.922 33.072 113.074 32.768 114.034 32.16C114.994 31.52 115.922 30.576 116.818 29.328V16.944C115.986 15.856 115.09 15.04 114.13 14.496L110.962 13.632L106.402 16.08C106.402 16.08 104.818 20.144 104.818 23.376C104.818 26.64 105.314 29.072 106.306 30.672C107.298 32.272 108.722 33.072 110.578 33.072Z" fill="#0C0C0C"/>
<path d="M141.329 10.128C142.225 10.128 143.057 10.224 143.825 10.416L143.009 14.736C142.241 14.544 141.505 14.448 140.801 14.448C139.233 14.448 137.969 15.024 137.009 16.176C136.049 17.328 135.297 19.12 134.753 21.552V36H130.337V10.704H134.129L134.561 15.84C135.233 13.952 136.145 12.528 137.297 11.568C138.449 10.608 139.793 10.128 141.329 10.128Z" fill="#0C0C0C"/>
<path d="M156.904 10.128C160.456 10.128 163.208 11.312 165.16 13.68C167.144 16.048 168.136 19.264 168.136 23.328C168.136 25.952 167.688 28.272 166.792 30.288C165.896 32.272 164.6 33.824 162.904 34.944C161.208 36.032 159.192 36.576 156.856 36.576C153.304 36.576 150.536 35.392 148.552 33.024C146.568 30.656 145.576 27.44 145.576 23.376C145.576 20.752 146.024 18.448 146.92 16.464C147.816 14.448 149.112 12.896 150.808 11.808C152.504 10.688 154.536 10.128 156.904 10.128ZM156.904 13.68C152.52 13.68 150.328 16.912 150.328 23.376C150.328 29.808 152.504 33.024 156.856 33.024C161.208 33.024 163.384 29.792 163.384 23.328C163.384 16.896 161.224 13.68 156.904 13.68Z" fill="#0C0C0C"/>
</svg>
