<svg width="44" height="44" viewBox="0 0 44 44" fill="none" xmlns="http://www.w3.org/2000/svg">
<path d="M22 43.2502C19.0333 43.2502 16.2583 42.7002 13.675 41.6002C11.0917 40.5002 8.84167 38.9835 6.925 37.0502C5.00833 35.1169 3.5 32.8502 2.4 30.2502C1.3 27.6502 0.75 24.8669 0.75 21.9002C0.75 18.9335 1.3 16.1585 2.4 13.5752C3.5 10.9919 5.00833 8.7502 6.925 6.8502C8.84167 4.9502 11.0917 3.4502 13.675 2.3502C16.2583 1.2502 19.0333 0.700195 22 0.700195C24.9667 0.700195 27.7417 1.2502 30.325 2.3502C32.9083 3.4502 35.1583 4.9502 37.075 6.8502C38.9917 8.7502 40.5083 10.9919 41.625 13.5752C42.7417 16.1585 43.3 18.9335 43.3 21.9002C43.3 24.8669 42.7417 27.6502 41.625 30.2502C40.5083 32.8502 38.9917 35.1169 37.075 37.0502C35.1583 38.9835 32.9083 40.5002 30.325 41.6002C27.7417 42.7002 24.9667 43.2502 22 43.2502ZM21.95 38.7002C23.0167 37.5335 23.9333 36.1919 24.7 34.6752C25.4667 33.1585 26.1167 31.3335 26.65 29.2002H17.4C17.8333 31.2002 18.4333 32.9835 19.2 34.5502C19.9667 36.1169 20.8833 37.5002 21.95 38.7002ZM17.85 38.1002C16.9833 36.9002 16.275 35.5669 15.725 34.1002C15.175 32.6335 14.7 31.0002 14.3 29.2002H7C8.2 31.5335 9.61667 33.3585 11.25 34.6752C12.8833 35.9919 15.0833 37.1335 17.85 38.1002ZM26.1 38.0502C28.4333 37.3169 30.5417 36.1919 32.425 34.6752C34.3083 33.1585 35.8167 31.3335 36.95 29.2002H29.75C29.3167 30.9669 28.8167 32.5835 28.25 34.0502C27.6833 35.5169 26.9667 36.8502 26.1 38.0502ZM6.05 26.3502H13.75C13.65 25.4502 13.5917 24.6502 13.575 23.9502C13.5583 23.2502 13.55 22.5669 13.55 21.9002C13.55 21.0669 13.5667 20.3419 13.6 19.7252C13.6333 19.1085 13.7 18.4002 13.8 17.6002H6.05C5.81667 18.4002 5.65833 19.1002 5.575 19.7002C5.49167 20.3002 5.45 21.0335 5.45 21.9002C5.45 22.7335 5.49167 23.4835 5.575 24.1502C5.65833 24.8169 5.81667 25.5502 6.05 26.3502ZM16.85 26.3502H27.2C27.3 25.3169 27.3583 24.4835 27.375 23.8502C27.3917 23.2169 27.4 22.5669 27.4 21.9002C27.4 21.2335 27.3917 20.6085 27.375 20.0252C27.3583 19.4419 27.3 18.6335 27.2 17.6002H16.85C16.7167 18.6335 16.6333 19.4419 16.6 20.0252C16.5667 20.6085 16.55 21.2335 16.55 21.9002C16.55 22.5669 16.5667 23.2169 16.6 23.8502C16.6333 24.4835 16.7167 25.3169 16.85 26.3502ZM30.2 26.3502H37.9C38.1 25.5502 38.25 24.8169 38.35 24.1502C38.45 23.4835 38.5 22.7335 38.5 21.9002C38.5 21.0335 38.45 20.3002 38.35 19.7002C38.25 19.1002 38.1 18.4002 37.9 17.6002H30.25C30.2833 18.8002 30.3167 19.6835 30.35 20.2502C30.3833 20.8169 30.4 21.3669 30.4 21.9002C30.4 22.6002 30.375 23.2669 30.325 23.9002C30.275 24.5335 30.2333 25.3502 30.2 26.3502ZM29.7 14.7002H36.95C35.8833 12.4669 34.4083 10.5919 32.525 9.0752C30.6417 7.55853 28.4833 6.5002 26.05 5.9002C26.9167 7.1002 27.6333 8.40853 28.2 9.8252C28.7667 11.2419 29.2667 12.8669 29.7 14.7002ZM17.4 14.7002H26.7C26.3667 13.0002 25.7667 11.3252 24.9 9.6752C24.0333 8.0252 23.05 6.6002 21.95 5.4002C20.9833 6.26686 20.1417 7.41686 19.425 8.8502C18.7083 10.2835 18.0333 12.2335 17.4 14.7002ZM7 14.7002H14.35C14.7167 12.9669 15.1583 11.4002 15.675 10.0002C16.1917 8.6002 16.9 7.2502 17.8 5.9502C15.3333 6.5502 13.1917 7.58353 11.375 9.0502C9.55833 10.5169 8.1 12.4002 7 14.7002Z" fill="#00CB2D"/>
</svg>
