<svg width="19" height="19" viewBox="0 0 19 19" fill="none" xmlns="http://www.w3.org/2000/svg">
<path d="M9.48884 19C8.16412 19 6.92499 18.7544 5.77145 18.2632C4.6179 17.772 3.6132 17.0948 2.75734 16.2315C1.90149 15.3682 1.22797 14.3561 0.73678 13.1951C0.245593 12.0341 0 10.7912 0 9.46651C0 8.14179 0.245593 6.90266 0.73678 5.74912C1.22797 4.59557 1.90149 3.59459 2.75734 2.74618C3.6132 1.89777 4.6179 1.22797 5.77145 0.73678C6.92499 0.245593 8.16412 0 9.48884 0C10.8136 0 12.0527 0.245593 13.2062 0.73678C14.3598 1.22797 15.3645 1.89777 16.2203 2.74618C17.0762 3.59459 17.7534 4.59557 18.2521 5.74912C18.7507 6.90266 19 8.14179 19 9.46651C19 10.7912 18.7507 12.0341 18.2521 13.1951C17.7534 14.3561 17.0762 15.3682 16.2203 16.2315C15.3645 17.0948 14.3598 17.772 13.2062 18.2632C12.0527 18.7544 10.8136 19 9.48884 19ZM9.46651 16.9683C9.94281 16.4473 10.3521 15.8482 10.6945 15.171C11.0368 14.4937 11.3271 13.6788 11.5652 12.7262H7.43478C7.62828 13.6193 7.8962 14.4156 8.23854 15.1152C8.58089 15.8147 8.99021 16.4324 9.46651 16.9683ZM7.63572 16.7004C7.24873 16.1645 6.93243 15.5691 6.68684 14.9142C6.44125 14.2593 6.22914 13.53 6.05053 12.7262H2.79083C3.32667 13.7681 3.95926 14.583 4.6886 15.171C5.41794 15.7589 6.40031 16.2687 7.63572 16.7004ZM11.3196 16.678C12.3615 16.3506 13.303 15.8482 14.1439 15.171C14.9849 14.4937 15.6584 13.6788 16.1645 12.7262H12.9495C12.756 13.5151 12.5327 14.237 12.2797 14.8919C12.0266 15.5468 11.7066 16.1422 11.3196 16.678ZM2.36663 11.4536H5.80494C5.76028 11.0517 5.73423 10.6945 5.72679 10.3819C5.71935 10.0693 5.71563 9.7642 5.71563 9.46651C5.71563 9.0944 5.72307 8.77066 5.73796 8.4953C5.75284 8.21994 5.78261 7.90364 5.82726 7.54642H2.36663C2.26244 7.90364 2.19174 8.21622 2.15452 8.48414C2.11731 8.75206 2.09871 9.07951 2.09871 9.46651C2.09871 9.83862 2.11731 10.1735 2.15452 10.4712C2.19174 10.7689 2.26244 11.0964 2.36663 11.4536ZM7.18919 11.4536H11.8108C11.8555 10.9922 11.8815 10.6201 11.889 10.3373C11.8964 10.0544 11.9001 9.7642 11.9001 9.46651C11.9001 9.16882 11.8964 8.88974 11.889 8.62926C11.8815 8.36878 11.8555 8.00783 11.8108 7.54642H7.18919C7.12965 8.00783 7.09244 8.36878 7.07756 8.62926C7.06267 8.88974 7.05523 9.16882 7.05523 9.46651C7.05523 9.7642 7.06267 10.0544 7.07756 10.3373C7.09244 10.6201 7.12965 10.9922 7.18919 11.4536ZM13.1504 11.4536H16.5887C16.678 11.0964 16.745 10.7689 16.7897 10.4712C16.8343 10.1735 16.8566 9.83862 16.8566 9.46651C16.8566 9.07951 16.8343 8.75206 16.7897 8.48414C16.745 8.21622 16.678 7.90364 16.5887 7.54642H13.1727C13.1876 8.08226 13.2025 8.47669 13.2174 8.72973C13.2323 8.98277 13.2397 9.22836 13.2397 9.46651C13.2397 9.77908 13.2286 10.0768 13.2062 10.3596C13.1839 10.6424 13.1653 11.0071 13.1504 11.4536ZM12.9271 6.25147H16.1645C15.6882 5.25421 15.0296 4.41696 14.1886 3.73972C13.3476 3.06248 12.3839 2.58989 11.2973 2.32197C11.6843 2.85781 12.0043 3.44203 12.2573 4.07462C12.5104 4.70721 12.7336 5.43282 12.9271 6.25147ZM7.43478 6.25147H11.5875C11.4387 5.49236 11.1708 4.74442 10.7838 4.00764C10.3968 3.27086 9.9577 2.63455 9.46651 2.09871C9.03486 2.4857 8.65903 2.99922 8.33901 3.63925C8.019 4.27928 7.71759 5.15002 7.43478 6.25147ZM2.79083 6.25147H6.07286C6.23658 5.47748 6.4338 4.77791 6.66451 4.15276C6.89522 3.52761 7.21152 2.92479 7.6134 2.3443C6.51195 2.61222 5.55562 3.07364 4.74442 3.72855C3.93322 4.38347 3.28202 5.22444 2.79083 6.25147Z" fill="#EBFF00"/>
</svg>
