<svg width="19" height="19" viewBox="0 0 19 19" fill="none" xmlns="http://www.w3.org/2000/svg">
<path d="M9.54104 18.8195C8.88445 18.2629 8.16973 17.804 7.39687 17.443C6.62401 17.0819 5.82037 16.9014 4.98596 16.9014C4.06121 16.9014 3.18028 17.0932 2.34316 17.4768C1.50603 17.8605 0.724982 18.3682 0 19V4.64846C0.766019 4.19715 1.5629 3.84739 2.39066 3.59917C3.21841 3.35095 4.07162 3.22684 4.95028 3.22684C5.75376 3.22684 6.54194 3.3378 7.3148 3.55973C8.08765 3.78165 8.81606 4.13709 9.5 4.62605V16.6081C10.1839 16.1271 10.9055 15.7437 11.6647 15.4576C12.4239 15.1715 13.207 15.0285 14.014 15.0285C14.5855 15.0285 15.1489 15.0981 15.7045 15.2372C16.26 15.3764 16.7909 15.5926 17.297 15.886V3.81354C17.6059 3.902 17.8979 4.0191 18.1732 4.16486C18.4485 4.31061 18.7241 4.47182 19 4.64846V19C18.275 18.3682 17.494 17.8605 16.6568 17.4768C15.8197 17.0932 14.9388 16.9014 14.014 16.9014C13.1885 16.9014 12.4008 17.0819 11.6509 17.443C10.9009 17.804 10.1976 18.2629 9.54104 18.8195ZM10.7311 14.5095V5.97981L16.0659 0V9.27435L10.7311 14.5095ZM7.79698 15.6829V5.79929C7.36081 5.52902 6.90632 5.34486 6.43349 5.24682C5.96067 5.14878 5.47816 5.09976 4.98596 5.09976C4.41145 5.09976 3.85061 5.15618 3.30346 5.269C2.7563 5.38183 2.22282 5.56586 1.70302 5.82109V15.8634C2.22282 15.5776 2.7563 15.367 3.30346 15.2316C3.85061 15.0962 4.41145 15.0285 4.98596 15.0285C5.46731 15.0285 5.94573 15.0772 6.42122 15.1747C6.89673 15.2722 7.35531 15.4416 7.79698 15.6829Z" fill="#EBFF00"/>
</svg>
