<svg width="48" height="43" viewBox="0 0 48 43" fill="none" xmlns="http://www.w3.org/2000/svg">
<path d="M24.0996 42.1502C22.4996 40.9169 20.7579 39.9002 18.8746 39.1002C16.9913 38.3002 15.0329 37.9002 12.9996 37.9002C10.7461 37.9002 8.59944 38.3252 6.55951 39.1752C4.51958 40.0252 2.61628 41.1502 0.849609 42.5502V10.7502C2.71628 9.7502 4.65816 8.9752 6.67526 8.4252C8.69236 7.8752 10.7715 7.6002 12.9127 7.6002C14.8706 7.6002 16.7913 7.84606 18.6746 8.3378C20.5579 8.82953 22.3329 9.61711 23.9996 10.7005V37.2502C25.6663 36.1846 27.4246 35.3348 29.2746 34.701C31.1246 34.0671 33.0329 33.7502 34.9996 33.7502C36.3921 33.7502 37.7652 33.9044 39.119 34.2127C40.4727 34.521 41.7663 35.0002 42.9996 35.6502V8.9002C43.7523 9.0962 44.4641 9.35568 45.1349 9.67864C45.8057 10.0016 46.4773 10.3588 47.1496 10.7502V42.5502C45.3829 41.1502 43.4796 40.0252 41.4397 39.1752C39.3998 38.3252 37.2531 37.9002 34.9996 37.9002C32.988 37.9002 31.0684 38.3002 29.2409 39.1002C27.4134 39.9002 25.6996 40.9169 24.0996 42.1502ZM26.9996 32.6002V13.7002L39.9996 0.450195V21.0002L26.9996 32.6002ZM19.8496 35.2002V13.3002C18.7867 12.7013 17.6792 12.2933 16.527 12.076C15.3748 11.8588 14.199 11.7502 12.9996 11.7502C11.5996 11.7502 10.2329 11.8752 8.89961 12.1252C7.56628 12.3752 6.26628 12.783 4.99961 13.3485V35.6002C6.26628 34.9669 7.56628 34.5002 8.89961 34.2002C10.2329 33.9002 11.5996 33.7502 12.9996 33.7502C14.1726 33.7502 15.3384 33.8582 16.4971 34.0742C17.6558 34.2902 18.7733 34.6655 19.8496 35.2002Z" fill="#14FF00"/>
</svg>
