<svg width="26" height="7" viewBox="0 0 26 7" fill="none" xmlns="http://www.w3.org/2000/svg">
<path d="M0.954305 0.824253C0.954732 0.644634 1.19917 0.499604 1.50026 0.50032L21.127 0.546991C21.4281 0.547707 21.6718 0.693898 21.6714 0.873518L21.6679 2.33705C21.6675 2.51667 21.423 2.6617 21.1219 2.66098L1.49524 2.61431C1.19414 2.6136 0.950397 2.46741 0.950825 2.28779L0.954305 0.824253Z" fill="#FF0000"/>
<path d="M3.13002 2.94343C3.13045 2.76381 3.37488 2.61878 3.67598 2.6195L23.3027 2.66617C23.6038 2.66689 23.8475 2.81308 23.8471 2.9927L23.8436 4.45623C23.8432 4.63585 23.5988 4.78088 23.2977 4.78016L3.67096 4.73349C3.36986 4.73278 3.12612 4.58659 3.12654 4.40697L3.13002 2.94343Z" fill="#EBFF00"/>
<path d="M5.03315 5.06196C5.03358 4.88234 5.27801 4.73731 5.57911 4.73803L25.2058 4.7847C25.5069 4.78542 25.7507 4.93161 25.7502 5.11123L25.7467 6.57476C25.7463 6.75438 25.5019 6.89941 25.2008 6.89869L5.57408 6.85202C5.27298 6.85131 5.02924 6.70512 5.02967 6.5255L5.03315 5.06196Z" fill="#00FF1A"/>
</svg>
